<?xml version="1.0" standalone="no"?>
<!DOCTYPE svg PUBLIC "-//W3C//DTD SVG 20010904//EN"
 "http://www.w3.org/TR/2001/REC-SVG-20010904/DTD/svg10.dtd">
<svg version="1.0" xmlns="http://www.w3.org/2000/svg"
 width="64.000000pt" height="64.000000pt" viewBox="0 0 64.000000 64.000000"
 preserveAspectRatio="xMidYMid meet">

<g transform="translate(0.000000,64.000000) scale(0.100000,-0.100000)"
fill="#000000" stroke="none">
<path d="M261 600 c-76 -16 -193 -103 -175 -131 9 -16 24 -10 58 24 51 51 101
71 176 71 77 0 127 -21 181 -76 54 -56 91 -178 54 -178 -19 0 -19 -15 1 -45
20 -31 35 -31 62 -2 25 26 29 47 8 47 -8 0 -18 21 -25 58 -32 161 -182 264
-340 232z"/>
<path d="M267 504 c-4 -4 -7 -17 -7 -30 0 -26 -24 -38 -49 -25 -20 11 -31 5
-54 -31 -21 -33 -22 -52 -2 -68 21 -18 19 -53 -5 -68 -21 -13 -21 -13 5 -55
16 -28 31 -41 43 -39 9 2 23 4 31 5 13 2 25 -13 35 -45 4 -14 17 -18 56 -18
39 0 52 4 56 18 10 32 22 47 35 45 8 -1 22 -3 31 -5 12 -2 27 11 43 38 24 41
24 41 5 59 -24 22 -26 48 -5 65 20 16 19 35 -2 68 -23 36 -34 42 -54 31 -26
-13 -47 -1 -51 29 -3 25 -7 27 -53 30 -28 2 -54 0 -58 -4z m88 -149 c14 -13
25 -29 25 -35 0 -14 -46 -60 -60 -60 -14 0 -60 46 -60 60 0 14 46 60 60 60 6
0 22 -11 35 -25z"/>
<path d="M22 377 c-25 -27 -28 -47 -8 -47 9 0 17 -16 21 -42 29 -178 195 -291
358 -244 84 25 193 117 155 131 -8 3 -32 -11 -55 -33 -100 -95 -252 -94 -348
3 -59 58 -99 185 -60 185 22 0 18 23 -8 48 -29 27 -29 27 -55 -1z"/>
</g>
</svg>
